<svg width="40" height="40" viewBox="0 0 40 40" fill="none" xmlns="http://www.w3.org/2000/svg">
<path d="M12.3636 23.3636H22.5455V25.9091H12.3636V23.3636Z" fill="#876CAB"/>
<path d="M12.3636 17H27.6364V19.5455H12.3636V17Z" fill="#876CAB"/>
<path d="M12.3636 29.7273H18.7273V31H12.3636V29.7273Z" fill="#876CAB"/>
<path d="M31.4545 6.68182H27.6364V5.45455C27.6364 4.80356 27.3682 4.17924 26.8908 3.71892C26.4135 3.2586 25.766 3 25.0909 3H14.9091C14.234 3 13.5865 3.2586 13.1092 3.71892C12.6318 4.17924 12.3636 4.80356 12.3636 5.45455V6.68182H8.54545C7.87036 6.68182 7.22291 6.94042 6.74555 7.40074C6.26818 7.86105 6 8.48538 6 9.13636V34.9091C6 35.5601 6.26818 36.1844 6.74555 36.6447C7.22291 37.105 7.87036 37.3636 8.54545 37.3636H31.4545C32.1296 37.3636 32.7771 37.105 33.2545 36.6447C33.7318 36.1844 34 35.5601 34 34.9091V9.13636C34 8.48538 33.7318 7.86105 33.2545 7.40074C32.7771 6.94042 32.1296 6.68182 31.4545 6.68182ZM14.9091 5.45455H25.0909V10.3636H14.9091V5.45455ZM31.4545 34.9091H8.54545V9.13636H12.3636V12.8182H27.6364V9.13636H31.4545V34.9091Z" fill="#876CAB"/>
</svg>
