<svg width="230" height="230" viewBox="0 0 230 230" fill="none" xmlns="http://www.w3.org/2000/svg">
<path d="M-1.93181e-05 115L115 230L230 115L115 1.39233e-07L-1.93181e-05 115Z" fill="white"/>
<path d="M196.307 196.342L196.307 33.7061L33.6712 33.7061L33.6712 196.342L196.307 196.342Z" fill="#876CAB"/>
<path d="M69.2781 147.916C69.2781 151.238 67.1272 152.963 63.7624 152.963C63.7198 152.963 57.48 152.963 57.48 152.963C57.1818 152.963 56.9263 152.707 56.9263 152.409V137.928C56.9263 137.608 57.2031 137.374 57.48 137.374H66.8929C67.2124 137.374 67.4466 137.63 67.4466 137.928V140.654C67.4466 140.973 67.1911 141.207 66.8929 141.207H61.5263V143.252C62.6763 143.252 63.6985 143.252 63.7624 143.252C67.1059 143.252 69.2781 144.764 69.2781 147.916ZM64.955 148.086C64.955 147.405 64.4013 146.957 63.4642 146.957C63.2726 146.957 62.442 146.957 61.5263 146.957V149.279C62.3568 149.279 63.1235 149.279 63.4429 149.279C64.38 149.257 64.955 148.746 64.955 148.086Z" fill="#15172C"/>
<path d="M87.9763 145.169C87.9763 149.619 84.143 153.24 79.6282 153.24C75.0921 153.24 71.28 149.641 71.28 145.169C71.28 140.718 75.0921 137.097 79.6282 137.097C84.143 137.097 87.9763 140.718 87.9763 145.169ZM83.568 145.169C83.568 142.89 81.8004 141.08 79.6282 141.08C77.456 141.08 75.6671 142.911 75.6671 145.169C75.6671 147.426 77.456 149.279 79.6282 149.279C81.8217 149.279 83.568 147.447 83.568 145.169Z" fill="#15172C"/>
<path d="M103.736 152.963C103.437 152.963 100.136 152.963 100.136 152.963C99.4763 152.963 99.3485 152.75 99.1356 152.154C98.9865 151.792 97.6235 147.383 96.4309 143.55C95.2596 147.383 93.8967 151.792 93.7689 152.154C93.5133 152.729 93.4282 152.963 92.768 152.963C92.768 152.963 89.4458 152.963 89.1476 152.963C88.7643 152.963 88.5726 152.665 88.743 152.175C88.9346 151.643 93.705 138.311 93.8967 137.928C94.067 137.544 94.2161 137.374 94.5995 137.374H98.3263C98.7309 137.374 98.8587 137.544 99.0291 137.928C99.1782 138.311 103.949 151.643 104.161 152.175C104.311 152.665 104.098 152.963 103.736 152.963Z" fill="#15172C"/>
<path d="M118.409 147.511C118.409 150.833 116.258 152.963 112.616 152.963C112.573 152.963 106.547 152.963 106.547 152.963C106.248 152.963 105.993 152.707 105.993 152.409V137.928C105.993 137.608 106.27 137.374 106.547 137.374H110.039C110.337 137.374 110.593 137.63 110.593 137.928V142.144C111.636 142.144 112.573 142.144 112.616 142.144C116.407 142.144 118.409 144.338 118.409 147.511ZM114.277 147.532C114.277 146.851 113.702 145.85 112.51 145.85C112.318 145.85 111.487 145.85 110.572 145.85V149.279C111.402 149.279 112.169 149.279 112.488 149.279C113.745 149.257 114.277 148.193 114.277 147.532Z" fill="#15172C"/>
<path d="M140.832 137.928V152.409C140.832 152.729 140.556 152.963 140.279 152.963H121.197C120.899 152.963 120.644 152.707 120.644 152.409V137.928C120.644 137.608 120.899 137.374 121.197 137.374H124.69C124.988 137.374 125.244 137.63 125.244 137.928V149.13H128.438V137.928C128.438 137.608 128.694 137.374 128.992 137.374H132.484C132.782 137.374 133.038 137.63 133.038 137.928V149.13H136.232V137.928C136.232 137.608 136.467 137.374 136.786 137.374H140.279C140.556 137.374 140.832 137.608 140.832 137.928Z" fill="#15172C"/>
<path d="M157.549 152.963C157.23 152.963 153.929 152.963 153.929 152.963C153.269 152.963 153.162 152.75 152.928 152.154C152.885 152.047 152.736 151.6 152.502 150.876H147.689C147.476 151.579 147.306 152.026 147.263 152.154C147.05 152.729 146.922 152.963 146.262 152.963C146.262 152.963 142.94 152.963 142.663 152.963C142.28 152.963 142.067 152.665 142.259 152.175C142.45 151.643 147.348 138.311 147.54 137.928C147.689 137.544 147.838 137.374 148.222 137.374H151.97C152.374 137.374 152.502 137.544 152.672 137.928C152.843 138.311 157.741 151.685 157.954 152.175C158.124 152.665 157.933 152.963 157.549 152.963ZM151.267 147.064C150.884 145.871 150.479 144.594 150.096 143.358C149.712 144.594 149.308 145.85 148.924 147.064H151.267Z" fill="#15172C"/>
<path d="M172.989 137.928V152.409C172.989 152.729 172.733 152.963 172.435 152.963H168.942C168.644 152.963 168.41 152.707 168.41 152.409V148.193C167.963 148.193 167.558 148.193 167.217 148.193C166.216 150.003 164.981 152.239 164.896 152.409C164.747 152.686 164.449 152.963 164.044 152.963C164.044 152.963 160.679 152.963 160.104 152.963C159.551 152.963 159.508 152.558 159.7 152.218C159.849 151.941 161.531 149.087 162.596 147.277C161.127 146.34 160.36 144.764 160.36 142.826C160.36 139.504 162.49 137.374 166.153 137.374C166.195 137.374 172.435 137.374 172.435 137.374C172.733 137.374 172.989 137.608 172.989 137.928ZM164.47 142.805C164.47 143.486 165.045 144.487 166.238 144.487C166.451 144.487 167.388 144.487 168.389 144.487V141.058C167.452 141.058 166.579 141.058 166.259 141.058C165.024 141.08 164.47 142.123 164.47 142.805Z" fill="#15172C"/>
<path d="M76.9231 154.453C77.6472 151.898 77.6898 150.897 77.6898 150.897C77.6898 150.897 78.1583 150.705 78.8398 150.705C80.0537 150.705 80.4796 151.11 80.5435 152.579L80.9694 162.418L85.3564 153.261C85.9953 151.94 86.1444 151.387 86.2083 150.918C86.2083 150.918 86.5277 150.727 87.3583 150.727C88.849 150.727 89.1259 151.387 88.8703 152.92L87.2305 162.354C87.0388 163.526 87.4435 164.015 88.1249 164.015C89.1046 164.015 89.9564 162.823 90.2333 162.269C90.5314 162.269 90.6592 162.461 90.6166 162.78C90.4462 163.994 88.8277 165.74 86.9962 165.74C85.5694 165.74 84.5898 164.782 84.5898 163.249C84.5898 162.333 84.6962 161.524 84.8666 160.459L85.8888 154.624L81.6935 163.462C81.1824 164.569 81.012 165.421 81.012 165.421C81.012 165.421 80.5435 165.719 79.7555 165.719C78.6694 165.719 78.4564 164.931 78.3925 163.696L77.9879 154.539L76.0074 161.886C75.2407 164.74 74.2611 165.719 72.9407 165.719C72.0462 165.719 71.45 165.102 71.45 164.186C71.45 163.483 71.7268 163.185 71.7268 163.185C71.7268 163.185 71.9398 163.355 72.4296 163.355C73.7287 163.355 74.6231 162.503 75.6666 158.819L76.9231 154.453Z" fill="white"/>
<path d="M89.8286 161.417C89.8286 157.861 92.5332 155.731 95.1953 155.731C97.2397 155.731 98.0703 156.796 98.0703 157.818C98.0703 159.65 95.9619 160.842 92.4481 161.502C92.5758 163.015 93.6194 164.165 95.3231 164.165C97.474 164.165 98.6879 163.1 99.2416 162.269C99.4971 162.269 99.6462 162.44 99.561 162.78C99.3906 163.653 97.4527 165.74 94.386 165.74C91.724 165.74 89.8286 164.122 89.8286 161.417ZM92.4481 160.565C94.8971 159.99 95.9193 158.755 95.9193 157.435C95.9193 157.009 95.6425 156.732 95.2166 156.732C94.0666 156.732 92.661 158.052 92.4481 160.565Z" fill="white"/>
<path d="M107.164 164.058C107.164 164.058 109.23 163.227 110.422 162.248C110.656 162.248 110.869 162.418 110.805 162.716C110.763 162.908 110.55 163.142 110.145 163.44C109.4 163.994 108.143 164.697 106.951 165.293L106.908 165.527C106.12 170.17 104.267 172.768 101.286 172.768C99.923 172.768 99.0499 171.916 99.0499 170.66C99.0499 169.467 99.7527 168.402 100.732 167.551C101.712 166.699 102.755 166.081 104.395 165.293L104.63 163.866C103.82 165.102 102.819 165.74 101.776 165.74C100.136 165.74 98.8369 164.633 98.8369 162.29C98.8369 157.818 101.435 155.71 103.778 155.71C104.779 155.71 105.481 156.115 105.95 156.69C106.269 155.965 106.78 155.71 107.76 155.71C108.442 155.71 108.761 155.902 108.761 155.902C108.761 155.902 108.484 156.264 108.292 157.35L107.164 164.058ZM104.182 166.55C102.862 167.231 101.946 167.806 101.35 168.402C100.562 169.169 100.157 169.851 100.157 170.553C100.157 171.065 100.455 171.448 101.073 171.448C102.5 171.448 103.586 169.765 104.182 166.55ZM105.481 158.99L105.652 158.052C105.481 157.648 105.098 157.094 104.331 157.094C102.968 157.094 101.435 159.117 101.435 162.354C101.435 163.483 101.882 164.015 102.628 164.015C104.033 163.994 105.098 160.991 105.481 158.99Z" fill="white"/>
<path d="M119.601 161.758H119.43C118.77 164.058 116.875 165.74 114.192 165.74C111.849 165.74 110.422 164.356 110.422 161.566C110.422 157.712 111.721 154.73 113.084 152.537C114.511 150.258 116.342 149.108 118.174 149.108C120.048 149.108 120.879 150.109 120.879 151.664C120.879 153.09 120.197 154.752 117.599 156.54C118.983 157.03 119.686 158.265 119.686 159.863C119.686 160.246 119.643 160.608 119.601 160.949H119.92C121.262 160.927 122.135 160.587 122.135 160.587C122.327 160.736 122.305 161.077 122.071 161.268C121.73 161.609 120.687 161.758 119.601 161.758ZM116.896 161.204C116.321 160.842 116.044 160.31 116.044 159.628C116.044 158.968 116.406 158.415 117.045 158.265C116.96 157.754 116.811 157.414 116.577 157.158C115.448 157.754 114.468 158.031 113.489 158.415C113.148 159.948 112.978 161.481 112.978 162.695C112.978 164.207 113.489 164.74 114.362 164.74C115.448 164.74 116.449 163.27 116.896 161.204ZM114.767 154.134C114.383 155.135 114.042 156.2 113.787 157.265C116.79 155.838 118.664 152.941 118.664 150.961C118.664 150.322 118.28 150.109 117.876 150.109C116.96 150.109 115.64 151.898 114.767 154.134Z" fill="white"/>
<path d="M121.069 161.417C121.069 157.861 123.774 155.731 126.436 155.731C128.48 155.731 129.311 156.796 129.311 157.818C129.311 159.65 127.203 160.842 123.689 161.502C123.817 163.014 124.86 164.164 126.564 164.164C128.715 164.164 129.929 163.1 130.482 162.269C130.738 162.269 130.887 162.439 130.802 162.78C130.631 163.653 128.693 165.74 125.627 165.74C122.965 165.74 121.069 164.122 121.069 161.417ZM123.689 160.565C126.138 159.99 127.16 158.755 127.16 157.435C127.16 157.009 126.883 156.732 126.457 156.732C125.307 156.732 123.902 158.052 123.689 160.565Z" fill="white"/>
<path d="M138.404 164.058C138.404 164.058 140.47 163.227 141.663 162.248C141.897 162.248 142.11 162.418 142.046 162.716C142.003 162.908 141.79 163.142 141.386 163.44C140.64 163.994 139.384 164.697 138.191 165.293L138.149 165.527C137.361 170.17 135.508 172.768 132.526 172.768C131.164 172.768 130.29 171.916 130.29 170.66C130.29 169.467 130.993 168.402 131.973 167.55C132.952 166.699 133.996 166.081 135.636 165.293L135.87 163.866C135.061 165.101 134.06 165.74 133.016 165.74C131.376 165.74 130.077 164.633 130.077 162.29C130.077 157.818 132.676 155.71 135.018 155.71C136.019 155.71 136.722 156.114 137.19 156.689C137.51 155.965 138.021 155.71 139.001 155.71C139.682 155.71 140.001 155.901 140.001 155.901C140.001 155.901 139.725 156.263 139.533 157.35L138.404 164.058ZM135.444 166.55C134.124 167.231 133.208 167.806 132.612 168.402C131.824 169.169 131.419 169.85 131.419 170.553C131.419 171.064 131.717 171.448 132.335 171.448C133.762 171.448 134.826 169.765 135.444 166.55ZM136.722 158.989L136.892 158.052C136.722 157.648 136.338 157.094 135.572 157.094C134.209 157.094 132.676 159.117 132.676 162.354C132.676 163.483 133.123 164.015 133.868 164.015C135.274 163.994 136.338 160.991 136.722 158.989Z" fill="white"/>
<path d="M147.391 162.567C147.114 163.121 146.816 163.632 146.497 164.058C145.645 165.208 144.772 165.762 143.664 165.762C142.323 165.762 141.471 164.825 141.471 163.44C141.471 162.695 141.535 162.013 141.705 160.97L142.28 157.648C142.493 156.391 142.301 155.923 142.301 155.923C142.301 155.923 142.599 155.752 143.345 155.752C144.878 155.752 145.07 156.327 144.836 157.733L144.026 162.354C143.835 163.504 144.111 164.015 144.686 164.015C145.134 164.015 145.645 163.483 146.177 162.674C147.029 161.375 147.902 159.224 148.2 157.435C148.371 156.327 148.2 155.901 148.2 155.901C148.2 155.901 148.498 155.731 149.244 155.731C150.777 155.731 150.969 156.306 150.735 157.712L149.947 162.248C149.755 163.44 150.096 164.015 150.798 164.015C151.48 164.015 152.374 163.355 152.907 162.269C153.162 162.269 153.354 162.439 153.29 162.78C153.098 163.845 151.65 165.74 149.712 165.74C148.328 165.74 147.37 164.846 147.37 163.227C147.37 163.057 147.37 162.844 147.391 162.567Z" fill="white"/>
<path d="M163.086 162.993C163.427 162.993 163.619 163.163 163.619 163.525C163.619 166.251 163.065 169.063 161.084 169.063C160.275 169.063 159.828 168.615 159.828 167.87C159.828 167.614 159.892 167.487 159.892 167.487C161.17 167.423 162.021 166.337 162.447 164.846C162 165.4 161.425 165.719 160.658 165.719C159.445 165.719 158.593 164.782 158.593 163.27C158.593 163.014 158.593 162.759 158.614 162.525C158.337 163.078 158.039 163.589 157.72 164.015C156.868 165.165 155.995 165.719 154.887 165.719C153.545 165.719 152.694 164.782 152.694 163.398C152.694 162.652 152.757 161.971 152.928 160.927L153.503 157.605C153.716 156.349 153.524 155.88 153.524 155.88C153.524 155.88 153.822 155.71 154.568 155.71C156.101 155.71 156.293 156.285 156.058 157.69L155.249 162.312C155.057 163.44 155.334 163.973 155.909 163.973C156.357 163.973 156.868 163.44 157.4 162.631C158.252 161.332 159.104 159.288 159.423 157.392C159.594 156.285 159.423 155.859 159.423 155.859C159.423 155.859 159.721 155.688 160.467 155.688C162 155.688 162.192 156.263 161.957 157.669L161.17 162.205C160.957 163.462 161.276 163.973 161.808 163.973C162.383 163.973 162.724 163.036 162.724 163.036C162.724 163.036 162.895 162.993 163.086 162.993Z" fill="white"/>
<path d="M172.456 162.141C172.201 163.568 172.541 164.015 173.053 164.015C173.628 164.015 173.819 163.462 173.819 163.462C174.096 163.462 174.245 163.675 174.203 164.037C174.117 164.846 173.18 165.762 171.881 165.762C170.859 165.762 169.901 164.974 169.858 163.525C169.006 164.995 167.941 165.762 166.791 165.762C165.152 165.762 163.853 164.654 163.853 162.312C163.853 157.839 166.451 155.731 168.793 155.731C169.794 155.731 170.497 156.136 170.966 156.711C171.285 155.987 171.796 155.731 172.776 155.731C173.457 155.731 173.777 155.923 173.777 155.923C173.777 155.923 173.521 156.285 173.308 157.371L172.456 162.141ZM170.454 158.989L170.625 158.052C170.454 157.648 170.071 157.094 169.304 157.094C167.941 157.094 166.408 159.117 166.408 162.354C166.408 163.483 166.855 164.015 167.601 164.015C169.006 163.994 170.071 160.991 170.454 158.989Z" fill="white"/>
<path d="M64.8698 85.1147L63.8689 88.0749L65.7429 90.5666L62.6337 90.524L60.8235 93.0582L59.9077 90.0981L56.9263 89.161L59.4818 87.3721L59.4392 84.2629L61.9309 86.1156L64.8698 85.1147Z" fill="white"/>
<path d="M128.076 89.5224L127.288 91.8437L128.757 93.7816L126.308 93.7603L124.903 95.7409L124.179 93.4196L121.857 92.6955L123.859 91.29L123.817 88.8622L125.776 90.3103L128.076 89.5224Z" fill="white"/>
<path d="M108.421 87.2444L105.375 87.9045L104.183 90.7795L102.628 88.0749L99.5188 87.8406L101.606 85.5194L100.86 82.4953L103.714 83.7518L106.376 82.1332L106.057 85.2212L108.421 87.2444Z" fill="white"/>
<path d="M163.661 111.862L162.277 109.072L159.189 108.625L161.425 106.453L160.892 103.386L163.661 104.834L166.408 103.386L165.876 106.453L168.112 108.625L165.024 109.072L163.661 111.862Z" fill="white"/>
<path d="M165.94 78.8106L168.155 83.3041L173.095 84.0282L169.518 87.5208L170.369 92.4615L165.94 90.1189L161.51 92.4615L162.341 87.5208L158.763 84.0282L163.725 83.3041L165.94 78.8106Z" fill="white"/>
<path d="M129.46 106.516L132.867 107.816L135.891 105.75L135.7 109.413L138.596 111.649L135.061 112.586L133.826 116.015L131.845 112.948L128.182 112.841L130.482 110.009L129.46 106.516Z" fill="white"/>
<path d="M86.8902 73.4231L86.1022 75.7231L87.5716 77.6823L85.1226 77.661L83.717 79.6416L82.9929 77.3203L80.6716 76.5962L82.6522 75.1906L82.6309 72.7416L84.5902 74.211L86.8902 73.4231Z" fill="white"/>
<path d="M84.5898 112.458C83.9083 112.437 83.099 112.394 82.2685 112.373C82.1194 112.373 81.9703 112.373 81.8 112.373C81.5231 112.373 81.2463 112.352 80.9694 112.352H80.5435C80.6713 112.224 80.7777 112.117 80.9055 111.99C80.9694 111.926 81.0546 111.84 81.1185 111.777C81.5018 111.393 81.8639 110.989 82.1833 110.648C82.8009 109.988 83.1842 109.519 83.1842 109.519C83.2481 109.434 83.2481 109.328 83.1629 109.264C83.099 109.2 82.9713 109.178 82.9074 109.242C82.9074 109.242 82.4389 109.647 81.7787 110.243C81.4379 110.563 81.0333 110.925 80.65 111.308C80.5861 111.372 80.5009 111.436 80.437 111.521C80.3092 111.649 80.1814 111.755 80.0537 111.883V111.457C80.0537 111.159 80.0537 110.882 80.0324 110.605C80.0324 110.456 80.0324 110.307 80.0324 110.158C80.0111 109.328 79.9898 108.54 79.9685 107.837C79.9046 106.495 79.8407 105.579 79.8407 105.579C79.8407 105.473 79.7555 105.388 79.649 105.388C79.5426 105.388 79.4574 105.473 79.4574 105.558C79.4574 105.558 79.3722 106.474 79.3083 107.815C79.2657 108.518 79.2444 109.306 79.2444 110.137C79.2444 110.286 79.2444 110.435 79.2444 110.584C79.2444 110.861 79.2231 111.138 79.2231 111.436V111.862C79.0953 111.734 78.9888 111.628 78.8611 111.5C78.7972 111.436 78.712 111.351 78.6481 111.287C78.2648 110.903 77.8601 110.541 77.5194 110.222C76.8592 109.604 76.3907 109.221 76.3907 109.221C76.3055 109.157 76.199 109.157 76.1351 109.242C76.0713 109.306 76.05 109.434 76.1139 109.498C76.1139 109.498 76.5185 109.966 77.1148 110.627C77.4342 110.967 77.7963 111.372 78.1796 111.755C78.2435 111.819 78.3074 111.904 78.3926 111.968C78.5203 112.096 78.6268 112.224 78.7546 112.352H78.3287C78.0305 112.352 77.7537 112.352 77.4768 112.373C77.3277 112.373 77.1787 112.373 77.0296 112.373C76.2203 112.394 75.4324 112.416 74.7083 112.437C73.3666 112.501 72.4509 112.586 72.4509 112.586C72.3444 112.586 72.2805 112.671 72.2805 112.778C72.2805 112.884 72.3657 112.969 72.4509 112.969C72.4509 112.969 73.3666 113.054 74.7083 113.118C75.4111 113.161 76.199 113.182 77.0296 113.182C77.1787 113.182 77.3277 113.182 77.4981 113.182C77.775 113.182 78.0518 113.203 78.35 113.203H78.7759C78.6694 113.331 78.5416 113.438 78.4351 113.566C78.35 113.651 78.2861 113.715 78.2009 113.8C77.8176 114.183 77.4555 114.588 77.1361 114.928C76.5185 115.589 76.1351 116.057 76.1351 116.057C76.0713 116.142 76.0713 116.249 76.1564 116.313C76.2203 116.377 76.3481 116.398 76.412 116.334C76.412 116.334 76.8805 115.929 77.5407 115.333C77.8814 115.014 78.2861 114.652 78.6694 114.268C78.7333 114.204 78.8185 114.141 78.8824 114.055C79.0101 113.928 79.1379 113.821 79.2657 113.693V114.119C79.2657 114.417 79.2657 114.694 79.287 114.971C79.287 115.12 79.287 115.269 79.287 115.418C79.3083 116.228 79.3296 117.016 79.3509 117.74C79.4148 119.081 79.5 119.997 79.5 119.997C79.5 120.103 79.5852 120.167 79.6916 120.167C79.7981 120.167 79.8833 120.082 79.8833 119.997C79.8833 119.997 79.9685 119.081 80.0324 117.74C80.075 117.037 80.0963 116.249 80.0963 115.418C80.0963 115.269 80.0963 115.12 80.0963 114.971C80.0963 114.694 80.1176 114.417 80.1176 114.119V113.693C80.2453 113.821 80.3731 113.928 80.4796 114.055C80.5435 114.119 80.6287 114.204 80.6926 114.268C81.0972 114.652 81.4805 115.014 81.8213 115.333C82.4814 115.951 82.95 116.334 82.95 116.334C83.0351 116.398 83.1416 116.398 83.2055 116.313C83.2694 116.249 83.2907 116.121 83.2268 116.057C83.2268 116.057 82.8222 115.589 82.2259 114.928C81.9064 114.588 81.5444 114.183 81.1611 113.8C81.0972 113.736 81.012 113.651 80.9481 113.587C80.8416 113.459 80.7139 113.353 80.5861 113.225H81.012C81.3101 113.225 81.6083 113.225 81.8851 113.203C82.0342 113.203 82.1833 113.203 82.3111 113.203C83.1416 113.182 83.9296 113.161 84.6324 113.14C85.974 113.076 86.8898 113.012 86.8898 112.991C86.9324 112.991 86.975 112.969 87.0176 112.927C87.0602 112.884 87.0814 112.841 87.0814 112.799C87.0814 112.692 86.9963 112.607 86.9111 112.607C86.8472 112.607 85.9314 112.522 84.5898 112.458Z" fill="#15172C"/>
<path d="M141.045 66.0332C140.364 66.0119 139.554 65.9694 138.724 65.9481C138.575 65.9481 138.426 65.9481 138.255 65.9481C137.978 65.9481 137.702 65.9268 137.425 65.9268H136.999C137.127 65.799 137.233 65.6925 137.361 65.5647C137.425 65.5008 137.51 65.4156 137.574 65.3518C137.957 64.9684 138.319 64.5638 138.639 64.2231C139.256 63.5629 139.64 63.0944 139.64 63.0944C139.703 63.0092 139.703 62.9027 139.618 62.8388C139.554 62.7749 139.427 62.7536 139.363 62.8175C139.363 62.8175 138.894 63.2221 138.234 63.8184C137.893 64.1379 137.489 64.4999 137.105 64.8832C137.041 64.9471 136.956 65.011 136.892 65.0962C136.765 65.224 136.637 65.3305 136.509 65.4582V65.0323C136.509 64.7342 136.509 64.4573 136.488 64.1805C136.488 64.0314 136.488 63.8823 136.488 63.7332C136.466 62.9027 136.445 62.1147 136.424 61.4119C136.36 60.0703 136.296 59.1545 136.296 59.1545C136.296 59.0481 136.211 58.9629 136.104 58.9629C135.998 58.9629 135.913 59.0481 135.913 59.1332C135.913 59.1332 135.828 60.049 135.764 61.3907C135.721 62.0934 135.7 62.8814 135.7 63.7119C135.7 63.861 135.7 64.0101 135.7 64.1592C135.7 64.436 135.678 64.7129 135.678 65.011V65.4369C135.551 65.3092 135.444 65.2027 135.316 65.0749C135.253 65.011 135.167 64.9258 135.103 64.8619C134.72 64.4786 134.315 64.1166 133.975 63.7971C133.315 63.1795 132.846 62.7962 132.846 62.7962C132.761 62.7323 132.654 62.7323 132.59 62.8175C132.527 62.8814 132.505 63.0092 132.569 63.0731C132.569 63.0731 132.974 63.5416 133.57 64.2018C133.89 64.5425 134.252 64.9471 134.635 65.3305C134.699 65.3944 134.763 65.4795 134.848 65.5434C134.976 65.6712 135.082 65.799 135.21 65.9268H134.784C134.486 65.9268 134.209 65.9268 133.932 65.9481C133.783 65.9481 133.634 65.9481 133.485 65.9481C132.676 65.9694 131.888 65.9906 131.164 66.0119C129.822 66.0758 128.906 66.161 128.906 66.161C128.8 66.161 128.736 66.2462 128.736 66.3527C128.736 66.4592 128.821 66.5444 128.906 66.5444C128.906 66.5444 129.822 66.6295 131.164 66.6934C131.866 66.736 132.654 66.7573 133.485 66.7573C133.634 66.7573 133.783 66.7573 133.953 66.7573C134.23 66.7573 134.507 66.7786 134.805 66.7786H135.231C135.125 66.9064 134.997 67.0129 134.89 67.1407C134.805 67.2258 134.741 67.2897 134.656 67.3749C134.273 67.7582 133.911 68.1629 133.591 68.5036C132.974 69.1638 132.59 69.6323 132.59 69.6323C132.527 69.7175 132.527 69.824 132.612 69.8879C132.697 69.9518 132.803 69.9731 132.867 69.9092C132.867 69.9092 133.336 69.5045 133.996 68.9082C134.337 68.5888 134.741 68.2268 135.125 67.8434C135.189 67.7795 135.274 67.7156 135.338 67.6305C135.465 67.5027 135.593 67.3962 135.721 67.2684V67.6943C135.721 67.9925 135.721 68.2693 135.742 68.5462C135.742 68.6953 135.742 68.8444 135.742 68.9934C135.764 69.8027 135.785 70.5906 135.806 71.3147C135.87 72.6564 135.955 73.5721 135.955 73.5721C135.955 73.6786 136.04 73.7638 136.147 73.7638C136.253 73.7638 136.339 73.6786 136.339 73.5934C136.339 73.5934 136.424 72.6777 136.488 71.336C136.53 70.6332 136.552 69.8453 136.552 69.0147C136.552 68.8656 136.552 68.7166 136.552 68.5675C136.552 68.2906 136.573 68.0138 136.573 67.7156V67.2897C136.701 67.4175 136.828 67.524 136.935 67.6518C136.999 67.7156 137.084 67.8008 137.148 67.8647C137.553 68.2481 137.936 68.6101 138.277 68.9295C138.937 69.5471 139.405 69.9305 139.405 69.9305C139.49 69.9943 139.597 69.9944 139.661 69.9092C139.725 69.8453 139.746 69.7175 139.682 69.6536C139.682 69.6536 139.278 69.1851 138.681 68.5249C138.362 68.1842 138 67.7795 137.616 67.3962C137.553 67.3323 137.467 67.2471 137.403 67.1832C137.297 67.0555 137.169 66.949 137.041 66.8212H137.467C137.765 66.8212 138.064 66.8212 138.34 66.7999C138.49 66.7999 138.639 66.7999 138.766 66.7999C139.597 66.7786 140.385 66.7573 141.088 66.736C142.429 66.6721 143.345 66.6082 143.345 66.5869C143.388 66.5869 143.43 66.5656 143.473 66.5231C143.515 66.4805 143.537 66.4379 143.537 66.3953C143.537 66.2888 143.452 66.2036 143.366 66.2036C143.281 66.1823 142.387 66.0971 141.045 66.0332Z" fill="#15172C"/>
</svg>
