<svg width="40" height="40" viewBox="0 0 40 40" fill="none" xmlns="http://www.w3.org/2000/svg">
<path d="M5.96429 6.99998V25.2319L2.95011 28.2375C2.34672 28.8303 2.00532 29.6333 2 30.4722C2.00382 31.3006 2.34002 32.094 2.93544 32.6798C3.53085 33.2655 4.33732 33.5963 5.17936 33.6H35.8206C36.6627 33.5963 37.4691 33.2655 38.0646 32.6798C38.66 32.094 38.9962 31.3006 39 30.4722C39 29.6402 38.6485 28.8264 38.0499 28.2375L35.0357 25.2306V6.99998H5.96429ZM8.60714 9.59998H32.3929V24.5H8.60714V9.59998ZM7.86318 27.1H33.1355L36.192 30.0653C36.2968 30.1759 36.3557 30.321 36.3571 30.4722C36.3612 30.5426 36.35 30.613 36.3245 30.6788C36.299 30.7446 36.2596 30.8044 36.2089 30.8542C36.1583 30.904 36.0975 30.9428 36.0306 30.9679C35.9637 30.993 35.8921 31.004 35.8206 31H5.17936C5.10785 31.004 5.0363 30.993 4.96939 30.9679C4.90247 30.9428 4.84171 30.904 4.79106 30.8542C4.74042 30.8044 4.70104 30.7446 4.6755 30.6788C4.64996 30.613 4.63884 30.5426 4.64286 30.4722C4.64286 30.3292 4.70496 30.1667 4.80804 30.0653L7.86318 27.1Z" fill="#876CAB"/>
<path d="M17.2566 21.3395C17.0154 21.4633 16.7416 21.2464 16.7904 20.9695L17.3091 18.0133L15.1073 15.9159C14.9017 15.7196 15.0085 15.3609 15.2842 15.3221L18.3453 14.8871L19.7103 12.1828C19.8334 11.9391 20.1666 11.9391 20.2897 12.1828L21.6547 14.8871L24.7158 15.3221C24.9915 15.3609 25.0983 15.7196 24.8927 15.9159L22.6909 18.0133L23.2096 20.9695C23.2584 21.2464 22.9846 21.4633 22.7434 21.3395L19.9991 19.9295L17.256 21.3395H17.2566Z" fill="#876CAB"/>
</svg>
